<svg width="326" height="284" viewBox="0 0 326 284" fill="none" xmlns="http://www.w3.org/2000/svg"><path d="M149.647 11.35c69.423-.024 125.701 56.205 125.675 125.571l-125.672-.006-.006-125.567.003.002z" fill="#151A22"/><path d="M149.662 262.477c-69.426.024-125.702-56.204-125.678-125.571l125.672.007.006 125.564z" fill="#151A22"/><path d="M149.652 84.977a51.993 51.993 0 0 1 36.758 15.212 51.928 51.928 0 0 1 15.224 36.727m-51.98 51.931a51.998 51.998 0 0 1-36.754-15.21 51.901 51.901 0 0 1-15.224-36.723" stroke="#394859" stroke-width="2" stroke-miterlimit="10"/><path d="M97.676 136.913a51.916 51.916 0 0 1 15.225-36.724 52.001 52.001 0 0 1 36.755-15.212m51.974 51.941a51.919 51.919 0 0 1-15.226 36.72 52.007 52.007 0 0 1-36.752 15.211M226.27 60.36c42.317 42.282 42.316 110.827 0 153.108" stroke="#394859" stroke-width="2" stroke-miterlimit="10"/><path d="M312.798 161h-21.841a.88.88 0 0 0-.883.883.88.88 0 0 0 .883.884h21.89c1.178 0 1.816.785 1.816 1.57 0 .246-.05.638-.393.933-.344.245-.884.393-1.571.393h-8.147c-1.669 0-2.896.392-3.73 1.227-.834.883-.834 1.865-.834 1.963v2.307c-6.822.343-12.319 6.036-12.319 12.957v11.877c0 7.166 5.84 13.006 13.006 13.006 7.165 0 13.006-5.84 13.006-13.006v-11.877c0-6.823-5.252-12.418-11.975-12.957v-2.307c0-.147.098-1.424 2.797-1.424h8.147c1.129 0 2.062-.343 2.7-.932.638-.589.981-1.325.981-2.209 0-1.57-1.227-3.288-3.533-3.288zm-12.074 16.687c.932 0 1.669.736 1.669 1.669v3.043c-.049.932-.786 1.668-1.669 1.668a1.655 1.655 0 0 1-1.669-1.668v-3.043c0-.933.736-1.669 1.669-1.669zm-11.288 6.43c0-5.939 4.613-10.798 10.404-11.24v3.24a3.372 3.372 0 0 0-2.503 3.288v3.043a3.43 3.43 0 0 0 2.503 3.288v1.718h-10.404v-3.337zm22.576 11.877c-.049 6.233-5.104 11.239-11.288 11.239-6.233 0-11.239-5.055-11.239-11.239v-6.822h22.527v6.822zm-.049-11.877v3.337h-10.405v-1.767a3.373 3.373 0 0 0 2.503-3.288v-3.043a3.43 3.43 0 0 0-2.503-3.289v-3.239c5.841.491 10.405 5.35 10.405 11.289z" fill="#A7E200"/><path d="M73.034 213.464c-42.31-42.277-42.312-110.822.002-153.1m-.005-.002C115.35 18.08 183.95 18.085 226.267 60.36m-.001 153.105c-42.314 42.278-110.914 42.275-153.23 0m213.646-76.555l-48.815.003m-176.43-.003l-48.816.004M149.657 273.83l-.005-48.775m.002-176.279L149.652 0m21.078 190.715h35.658m-35.658 6.887h26.774m-26.774 6.89h35.658m-35.658 6.891h26.774m-26.774 6.887h35.658m-35.658 31.824h26.774m-26.774 6.89h35.658m-35.658 6.891h26.774m-26.774 6.887h35.658m-99.63-198.109l9.94-9.93m-2.355 9.932l9.939-9.932m-2.357 9.932l9.941-9.932m-2.355 9.935l9.94-9.931m-2.354 9.928l9.94-9.932m-2.353 9.932l9.94-9.932m-2.358 9.932l9.94-9.932m-2.354 9.935l9.939-9.931m-2.35 9.928l9.94-9.932m-2.358 9.932l9.941-9.932m-2.355 9.932l9.941-9.932m-85.79 3.08l-.002-3.08h3.085m82.706 6.851v3.08h-3.085" stroke="#394859" stroke-width="2" stroke-miterlimit="10"/><path d="M238.203 181.152H35.993v13.21h202.21v-13.21zM61.268 194.363H44.375v32.97h16.893v-32.97z" fill="#151A22"/><path d="M229.819 194.363h-16.893v32.97h16.893v-32.97z" fill="#253244"/><path d="M212.929 194.363H61.269v21.404h151.66v-21.404z" fill="#253244"/><path d="M212.929 194.363H61.269v13.615h151.66v-13.615z" fill="#151A22"/><path d="M238.203 181.152H35.993v13.21h202.21v-13.21zM44.375 227.333v-32.97h16.893v32.97m151.658 0v-32.97h16.893v32.97" stroke="#A7E200" stroke-width="2" stroke-linecap="round" stroke-linejoin="round"/><path d="M212.929 194.363H61.269v21.814h151.66v-21.814zm-83.425 11.485h15.188" stroke="#A7E200" stroke-width="2" stroke-linecap="round" stroke-linejoin="round"/><path d="M111.446 175.8v-12.847H87.873V175.8a5.35 5.35 0 0 1-3.307 4.946c-.65.27-1.347.408-2.05.408h34.289a5.361 5.361 0 0 1-3.789-1.568 5.352 5.352 0 0 1-1.57-3.786z" fill="#151A22"/><path d="M111.444 162.953H87.871v9.904h23.573v-9.904z" fill="#151A22"/><path d="M111.446 175.8v-12.847H87.873V175.8a5.35 5.35 0 0 1-3.307 4.946c-.65.27-1.347.408-2.05.408h34.289a5.361 5.361 0 0 1-3.789-1.568 5.352 5.352 0 0 1-1.57-3.786zm-42.325 5.352h61.077" stroke="#A7E200" stroke-width="2" stroke-linecap="round" stroke-linejoin="round"/><path d="M41.35 75.809h115.992a5.353 5.353 0 0 1 5.357 5.352v76.438a5.355 5.355 0 0 1-5.358 5.354H41.349a5.358 5.358 0 0 1-5.357-5.353V81.161a5.349 5.349 0 0 1 3.307-4.945 5.36 5.36 0 0 1 2.05-.407z" fill="#fff"/><path d="M157.342 75.809H41.349a5.36 5.36 0 0 0-3.788 1.568 5.35 5.35 0 0 0-1.569 3.785v68.97H162.7v-68.97a5.35 5.35 0 0 0-1.569-3.785 5.36 5.36 0 0 0-3.788-1.568z" fill="#253244"/><path d="M41.35 79.2h115.992a5.352 5.352 0 0 1 5.357 5.352V157.6a5.355 5.355 0 0 1-5.357 5.352H41.349a5.36 5.36 0 0 1-4.95-3.304 5.345 5.345 0 0 1-.407-2.048V84.553a5.35 5.35 0 0 1 3.308-4.946 5.363 5.363 0 0 1 2.05-.408z" fill="#151A22"/><path d="M162.699 150.232V81.526a5.341 5.341 0 0 0-3.307-4.946 5.357 5.357 0 0 0-2.05-.408H41.349a5.36 5.36 0 0 0-4.95 3.305 5.348 5.348 0 0 0-.407 2.049v68.706" fill="#151A22"/><path d="M36 85v65.579h126.707V85" fill="#1C232E"/><path fill-rule="evenodd" clip-rule="evenodd" d="M112.251 105.996c1.767-2.694 1.262-1.336 2.928-2.869.606-.548 2.676-1.862 3.585-2.191.455 1.95-.454 3.132-1.212 4.293-.505.767-1.666 3.067-2.12 3.417-.253-.197-.354-.591-.505-.942-.455-1.117-2.121-1.424-2.676-1.708zm-4.898 4.03c-.202-.373-.606-.811-.858-1.227-.152-.263-.656-1.095-.656-1.402a16.117 16.117 0 0 1 2.726.066c.783.107 1.558.261 2.323.46.101.088-.101 1.051-.101 1.249.252-.307.303-.855.504-1.139 1.212.219 2.575 2.059 3.181 3.022.303.46.253.526.909.657 1.313.285 2.626.241 4.039.614 1.616.416 3.383.81 4.696 1.511.858.482 1.313 1.161.051 1.533-.859.263-2.071-.088-2.676-.285v.044c0 .022.05.044.05.044.454.766 1.161 1.183 1.111 2.256 0 .854-.606 2.015-1.01 2.497a1.431 1.431 0 0 1-1.161.591c-.505-.022-.808-.416-1.061-.657-.656-.613-1.666-.679-2.777-.745-.555-.788.152-2.059.556-2.628.454-.635 1.313-1.117 2.221-1.402-.202-.372-1.262-.613-1.615-.722-1.313-.329-2.777-.439-4.09-.614-.404-.066-.454-.263-.656-.504a2.27 2.27 0 0 1-.556-.635c.404-.306.556-.635 1.01-.963.051-.789-.101-1.884-.707-2.059.253.898.303.547.303 1.752-.454-.088-.303-.153-.808-.066-.808.11-1.716.066-2.524.219-.758.132-.758.395-1.212.57-.404.175-1.01.153-1.363.438.858.854 2.524-.197 3.837.482.555.262.959.525 1.565.766.505.197 1.414.351 1.515.854-.051.329-3.13 1.994-3.383 4.25.61-.232 1.2-.51 1.767-.833.303-.153 1.565-.942 1.868-.438.253.701-.404 2.65-.353 3.548-1.818-.087-1.01-3.219-2.171-2.146-.707.701-2.828 1.949-2.979 2.19l.606.438c.252-.087.505-.241.707-.328 1.06-.46.959-.482 1.817-1.183-.05.745-1.161 2.65-1.514 3.088-.758.964-2.373-.723-2.929-1.226-.808-.767-1.817-1.446-2.524-2.125a7.469 7.469 0 0 1-1.566-1.949 4.721 4.721 0 0 0-.454-.745c-.404.701 0 2.497.303 3.11.959 2.147 2.524 1.993 3.989 3.286a10.727 10.727 0 0 1 1.767 1.883c.858 1.205.959 3.943 1.717 5.542.389.79.92 1.503 1.565 2.102a3.34 3.34 0 0 0 2.676 1.008 16.002 16.002 0 0 1-1.767 3.154c-1.515-.175-3.131-1.424-3.535-2.519-.303-.723-.303-1.796-.404-2.65-.252-2.322-.707-5.323-2.171-7.009-.707-.81-2.07-1.336-3.231-1.38a3.79 3.79 0 0 0-1.313.066c-.202.087-.05 0-.151.109.757.438 1.615 1.512 2.221 2.322.707 1.051 1.01 1.752 1.262 3.329.229 1.363.381 2.738.455 4.118.05.613.404 1.467.151 2.037-.202.635-.707 1.029-.908 1.445.858-.043 1.06-.701 1.615-.744.303.153.303.394.202.788a5.96 5.96 0 0 1-.858 1.599l-.606.657c1.161 0 1.06-.219 1.616-.766a1.975 1.975 0 0 1 1.767-.636c.303.57.606 1.03.909 1.709.252.569.606 1.292 1.312 1.314.051-.548-.404-1.752-.504-2.366 1.363.198 2.373-.109 3.079-.854 1.364-1.533 2.727-5.191 2.828-7.337 0-.416.05-1.643-.101-1.949-.202-.198-.808 1.117-.858 1.204a2.668 2.668 0 0 1-1.465.811c-.202-.351-.101-.964-.303-1.249-.252.088-.252.241-.303.526a.962.962 0 0 1-.252.569c-.808.022-1.01-1.051-1.212-1.774-.252-.788-.505-1.752-.353-2.65.808-4.162 4.695-6.549 6.311-4.994 1.06.986-.252 1.884-1.161 2.541l-.859.657c0 .022-.05.022-.05.044.909.482 3.433-.723 4.09-1.139a18.461 18.461 0 0 0 2.726-2.65c.505-.723.96-1.643 1.616-2.322.757-.876 1.414-2.869 2.02-3.329.303-.241.605-.285.656-.745a6.823 6.823 0 0 0-1.313-.635c-1.767-.745-1.06-1.183-3.938-1.906a26.347 26.347 0 0 0-3.231-.657c-.657-.044-1.212 0-1.768-.219a2.944 2.944 0 0 1-1.06-.854c1.363-.832 2.727-1.905 3.383-3.526.707-1.687.555-4.425.353-6.418-.404.11-1.969.745-2.575.964-2.171.723-2.827.504-4.392 2.804-.491.733-.914 1.51-1.263 2.321-2.07-.175-2.979-.175-4.948.789-.303.131-.757.438-1.009.503a12.457 12.457 0 0 1-.758-3.942c0-1.205.303-6.9.808-7.447.152.11.202.657.707 1.095.331.278.62.603.858.964a47.796 47.796 0 0 1 3.03 6.877c.05.132.05.219.101.329.101.197.05.197.202.285.303-.197.504-1.577.504-1.862-.05-2.344-.908-5.541-2.322-7.294-.808-.985-1.464-1.05-2.272-2.475a5.369 5.369 0 0 1-.606-1.248.733.733 0 0 0-.151-.46c-1.818 2.519-1.717 4.074-2.172 6.965-.179.924-.28 1.862-.303 2.804a12.087 12.087 0 0 0 .909 5.169 7.04 7.04 0 0 0 1.263 1.817c.303.373 1.211 1.117 1.817 1.271zM85.036 139.55c.152-1.379.505-2.036.657-4.008.1-1.686.252-2.453.96-3.723 1.362-2.585 2.978-3.483 3.634-4.6.202-.394.05-.46.455-.701a11.783 11.783 0 0 0-1.515.044c-.808.022-.707.044-1.212.438-.604.473-1.178.986-1.716 1.533-3.636 3.593-2.424 5.476-3.232 9.835a13.665 13.665 0 0 1-.656 2.584c-.152.394-1.01 2.015-.859 2.322.051.022 0 .197.455-.066.1-.087.252-.153.353-.241 2.374-1.708 2.727-2.124 5.857-3.241 3.232-1.183 8.13-2.585 10.704-4.797a11.43 11.43 0 0 0 2.373-2.803c.707-1.358.808-2.41 1.212-3.987.404-1.752.202-3.022-.303-4.512-.202.197-.454 1.227-.555 1.533-1.111 3.176-3.736 6.221-6.16 8.323-1.363 1.183-2.928 2.497-4.847 3.417-2.07 1.008-3.484.789-5.1 2.147-.202.175-.353.35-.505.503zM71 119.378c1.495.148 2.979.389 4.443.723 1.33.259 2.6.772 3.737 1.511 2.877 1.774 3.029 2.431 6.765 3.746 4.595 1.598 8.483.372 12.522-1.753.303-.153 3.13-1.664 3.231-2.015-.454-.219-4.19.548-5.049.855-.505.175-.909.394-1.413.591-3.787 1.446-9.745.022-13.28-1.73-.908-.46-1.413-.92-2.575-1.468-.706-.306-2.221-.964-3.08-.985a13.076 13.076 0 0 1 2.02-.614c2.525-.569 3.737.066 6.311-1.818.505-.393.977-.825 1.414-1.292a21.69 21.69 0 0 1 3.837-2.957c.102-.065.253-.153.404-.241l.505-.284-1.161-.657c-.505-.263-.757-.526-1.414-.373a11.69 11.69 0 0 0-2.676 1.073c-.807.46-1.514.964-2.272 1.446-.707.482-1.515 1.029-2.221 1.511-1.919 1.468-2.07 1.796-4.494 2.869a35.48 35.48 0 0 1-2.727 1.008c-.403.131-2.726.767-2.827.854zm2.777-21.618c.252.154 1.565.548 1.97.723 3.836 1.687 4.493 4.446 6.613 6.812 2.474 2.803 6.009 4.95 9.695 6.395 2.474.964 6.058 2.256 8.785 1.906-.96-.613-2.02-.92-3.181-1.38-1.11-.46-2.171-.898-3.282-1.402-3.938-1.796-6.766-3.548-9.694-6.527-1.313-1.336-3.282-3.811-4.544-4.818a6.564 6.564 0 0 0-.657-.504c-.252-.175-.555-.307-.707-.438a24.46 24.46 0 0 1 7.928.504c2.24.463 4.4 1.252 6.412 2.343.96.526 1.767 1.095 2.676 1.665 1.818 1.095 3.989 1.643 5.907 2.825.505.307.909.592 1.313.876.404.263.909.811 1.262.964-.202-.723-1.868-2.431-2.322-2.825a18.422 18.422 0 0 0-2.878-2.256c-4.595-2.957-9.644-4.906-15.35-5.235-1.918-.131-4.948.285-7.371.307-.252 0-2.373-.044-2.575.065zm20.55 24.115c.858.351.909.329 1.716-.022.505-.197 4.242-2.146 4.595-2.584-2.02-.132-5.857 1.401-6.311 2.606zm8.28-8.476l-1.969-1.139c-1.767-.832-5.504-2.256-7.372-2.125a9.948 9.948 0 0 0 2.272.898c1.706.225 3.372.689 4.948 1.38.505.219 1.768.701 2.121.986z" fill="#A7E200"/><path d="M41.35 75.809h115.992a5.353 5.353 0 0 1 5.357 5.352v76.438a5.355 5.355 0 0 1-5.358 5.354H41.349a5.358 5.358 0 0 1-5.357-5.353V81.161a5.349 5.349 0 0 1 3.307-4.945 5.36 5.36 0 0 1 2.05-.407zm121.35 74.324H36.617" stroke="#A7E200" stroke-width="2" stroke-linecap="round" stroke-linejoin="round"/><path d="M185.173 91.43h11.669c7.784 0 15.249 3.09 20.753 8.589a29.311 29.311 0 0 1 8.597 20.736v11.583a29.311 29.311 0 0 1-8.597 20.736 29.359 29.359 0 0 1-20.753 8.589h-11.669a29.359 29.359 0 0 1-20.753-8.589 29.308 29.308 0 0 1-8.597-20.736v-11.583a29.308 29.308 0 0 1 8.597-20.736 29.36 29.36 0 0 1 20.753-8.59z" fill="#1C232E"/><path d="M185.173 91.43h11.669c7.784 0 15.249 3.09 20.753 8.589a29.311 29.311 0 0 1 8.597 20.736v11.583a29.311 29.311 0 0 1-8.597 20.736 29.359 29.359 0 0 1-20.753 8.589h-11.669a29.359 29.359 0 0 1-20.753-8.589 29.308 29.308 0 0 1-8.597-20.736v-11.583a29.308 29.308 0 0 1 8.597-20.736 29.36 29.36 0 0 1 20.753-8.59z" stroke="#A7E200" stroke-width="2" stroke-linecap="round" stroke-linejoin="round"/><path d="M185.173 99.906h11.669a29.36 29.36 0 0 1 20.753 8.59 29.308 29.308 0 0 1 8.597 20.736v11.581a29.302 29.302 0 0 1-8.597 20.736 29.353 29.353 0 0 1-20.753 8.589h-11.669a29.359 29.359 0 0 1-20.753-8.589 29.308 29.308 0 0 1-8.597-20.736v-11.582a29.302 29.302 0 0 1 8.597-20.736 29.35 29.35 0 0 1 20.753-8.589z" fill="#A7E200"/><path d="M167.228 170.142a4.917 4.917 0 0 1 1.284 3.273v9.476a4.636 4.636 0 0 1-.234 1.426c-.702 4.214-4.342 10.052-8.762 10.052h-22.465c-.245 0-.477-.051-.717-.071-.03.023-.058.047-.086.071h-4.383c-12.942 0-23.431 7.864-23.431 20.792v40.636h165.145v-38.016a23.408 23.408 0 0 0-6.864-16.554 23.446 23.446 0 0 0-16.567-6.858h-4.385c-.029-.024-.056-.048-.086-.071-.24.02-.471.071-.719.071h-22.463c-4.419 0-8.06-5.838-8.762-10.052a4.639 4.639 0 0 1-.237-1.426v-9.476a4.947 4.947 0 0 1 1.285-3.278" fill="#151A22"/><path d="M250.148 198.738h-4.385a.965.965 0 0 0-.086-.072c-.24.018-.471.072-.719.072h-22.463c-4.419 0-8.06-5.839-8.762-10.055a4.626 4.626 0 0 1-.237-1.424v-12.755l-44.984.007v12.748a4.653 4.653 0 0 1-.234 1.424c-.702 4.216-4.342 10.055-8.762 10.055h-22.465c-.245 0-.477-.054-.717-.072a.82.82 0 0 0-.086.072h-4.383c-12.942 0-23.431 7.863-23.431 20.79v36.271h165.145v-33.651a23.404 23.404 0 0 0-6.864-16.553 23.44 23.44 0 0 0-16.567-6.857z" fill="#1C232E"/><path d="M168.276 184.317c-.577 3.456-3.13 8-6.467 9.523a23.089 23.089 0 0 0 8.473 10.81 23.12 23.12 0 0 0 13.119 4.091h15.205a23.12 23.12 0 0 0 13.119-4.091 23.09 23.09 0 0 0 8.474-10.81c-3.338-1.523-5.893-6.067-6.468-9.523a4.639 4.639 0 0 1-.237-1.426v-9.476a4.947 4.947 0 0 1 1.285-3.278l-47.553.005a4.917 4.917 0 0 1 1.284 3.273v9.476a4.636 4.636 0 0 1-.234 1.426z" fill="#1C232E"/><path d="M168.276 184.317c-.577 3.456-3.13 8-6.467 9.523a23.089 23.089 0 0 0 8.473 10.81 23.12 23.12 0 0 0 13.119 4.091h15.205a23.12 23.12 0 0 0 13.119-4.091 23.09 23.09 0 0 0 8.474-10.81c-3.338-1.523-5.893-6.067-6.468-9.523a4.639 4.639 0 0 1-.237-1.426v-9.476a4.947 4.947 0 0 1 1.285-3.278l-47.553.005a4.917 4.917 0 0 1 1.284 3.273v9.476a4.636 4.636 0 0 1-.234 1.426z" stroke="#A7E200" stroke-width="2" stroke-linecap="round" stroke-linejoin="round"/><path d="M168.514 173.415v5.489l12.298 9.632c2.994 2.347 6.594 6.136 10.196 6.136 3.603 0 7.202-3.789 10.197-6.136l12.293-9.628v-5.493a4.942 4.942 0 0 1 1.285-3.278l-47.553.005a4.922 4.922 0 0 1 1.284 3.273z" fill="#151A22"/><path d="M218.093 113.284a16.515 16.515 0 0 0-11.985-4.668l-15.1.42-15.1-.42a16.534 16.534 0 0 0-11.986 4.668 16.498 16.498 0 0 0-5.004 11.841v30.472a16.502 16.502 0 0 0 6.332 12.996l15.563 12.187a16.525 16.525 0 0 0 20.393 0l15.562-12.187a16.508 16.508 0 0 0 6.33-12.996v-30.472a16.5 16.5 0 0 0-5.005-11.841z" fill="#111B26"/><path d="M212.18 113.285c-2.504-3.109-5.9-4.806-9.371-4.668l-11.802.42-11.802-.42c-3.471-.138-6.869 1.559-9.371 4.668-2.499 3.108-3.912 7.379-3.912 11.841v30.472c0 5.073 1.825 9.865 4.951 12.996l12.165 12.187c2.34 2.347 5.154 3.521 7.969 3.521 2.815 0 5.632-1.174 7.973-3.521l12.164-12.187c3.124-3.131 4.949-7.923 4.949-12.996v-30.472c0-4.462-1.412-8.733-3.913-11.841z" fill="#1C232E"/><path d="M218.093 113.284a16.515 16.515 0 0 0-11.985-4.668l-15.1.42-15.1-.42a16.534 16.534 0 0 0-11.986 4.668 16.498 16.498 0 0 0-5.004 11.841v30.472a16.502 16.502 0 0 0 6.332 12.996l15.563 12.187a16.525 16.525 0 0 0 20.393 0l15.562-12.187a16.508 16.508 0 0 0 6.33-12.996v-30.472a16.5 16.5 0 0 0-5.005-11.841z" stroke="#A7E200" stroke-width="2" stroke-linecap="round" stroke-linejoin="round"/><path d="M175.457 139.766h1.632a2.53 2.53 0 0 1 2.53 2.527v1.634a2.529 2.529 0 0 1-2.531 2.529h-1.633a2.533 2.533 0 0 1-2.529-2.528v-1.634a2.528 2.528 0 0 1 2.531-2.528zm33.63 4.161a2.526 2.526 0 0 1-2.53 2.529h-1.634a2.533 2.533 0 0 1-2.529-2.529v-1.633a2.528 2.528 0 0 1 2.529-2.528h1.634a2.534 2.534 0 0 1 2.338 1.56c.127.307.192.636.192.968v1.633z" fill="#A7E200"/><path d="M273.578 255.797v-38.016a23.403 23.403 0 0 0-6.863-16.554 23.448 23.448 0 0 0-16.568-6.858h-4.385a2.903 2.903 0 0 0-.085-.071c-.24.02-.471.071-.719.071h-22.464c-4.419 0-8.06-5.838-8.761-10.052a4.639 4.639 0 0 1-.237-1.426v-9.476a4.937 4.937 0 0 1 1.285-3.278m-47.553.008a4.914 4.914 0 0 1 1.284 3.272v9.476a4.636 4.636 0 0 1-.234 1.426c-.702 4.214-4.342 10.052-8.762 10.052h-22.465c-.245 0-.477-.051-.717-.071-.03.023-.058.047-.086.071h-4.383c-12.942 0-23.431 7.864-23.431 20.792v40.636" stroke="#A7E200" stroke-width="2" stroke-linecap="round" stroke-linejoin="round"/><path d="M154.637 134.047h-1.241a4.262 4.262 0 0 0-4.263 4.26v8.148a4.262 4.262 0 0 0 4.263 4.26h1.241a4.262 4.262 0 0 0 4.263-4.26v-8.148a4.262 4.262 0 0 0-4.263-4.26z" fill="#253244"/><path d="M156.767 138.215h-.62a2.13 2.13 0 0 0-2.131 2.13v4.075a2.13 2.13 0 0 0 2.131 2.13h.62a2.13 2.13 0 0 0 2.132-2.13v-4.075a2.13 2.13 0 0 0-2.132-2.13z" fill="#253244"/><path d="M154.637 134.047h-1.241a4.262 4.262 0 0 0-4.263 4.26v8.148a4.262 4.262 0 0 0 4.263 4.26h1.241a4.262 4.262 0 0 0 4.263-4.26v-8.148a4.262 4.262 0 0 0-4.263-4.26z" stroke="#A7E200" stroke-width="2" stroke-linecap="round" stroke-linejoin="round"/><path d="M223.098 138.311a4.243 4.243 0 0 1 1.247-3.013 4.274 4.274 0 0 1 3.015-1.247h1.242a4.26 4.26 0 0 1 4.262 4.26v8.15a4.26 4.26 0 0 1-4.262 4.257h-1.242a4.244 4.244 0 0 1-3.014-1.246 4.252 4.252 0 0 1-1.248-3.011v-8.15z" fill="#253244"/><path d="M225.229 138.215h.621a2.13 2.13 0 0 1 2.131 2.13v4.075a2.128 2.128 0 0 1-2.131 2.13h-.621a2.13 2.13 0 0 1-2.131-2.131v-4.074a2.127 2.127 0 0 1 2.131-2.13z" fill="#253244"/><path d="M223.098 138.311a4.243 4.243 0 0 1 1.247-3.013 4.274 4.274 0 0 1 3.015-1.247h1.242a4.26 4.26 0 0 1 4.262 4.26v8.15a4.26 4.26 0 0 1-4.262 4.257h-1.242a4.244 4.244 0 0 1-3.014-1.246 4.252 4.252 0 0 1-1.248-3.011v-8.15z" stroke="#A7E200" stroke-width="2" stroke-linecap="round" stroke-linejoin="round"/><path d="M157.825 129.074s25.3-1.503 31.864-13.391v5.875s15.499-3.071 17.442-14.358c.023-.132.043-.265.063-.399l-24.685-2.852-17.339 8.242-6.729 6.634" fill="#A7E200"/><path d="M205.145 109.124s4.864 18.447 17.954 19.95c13.09 1.503.204.299.204.299s.885-8.789-.79-10.683c-1.676-1.894-11.214-10.932-11.214-10.932l-5.557-1.125" fill="#A7E200"/><path d="M132.058 226.461h.477a3.823 3.823 0 0 1 3.827 3.821v25.515m113.586-29.336h-.48a3.826 3.826 0 0 0-3.824 3.821v25.515" fill="#253244" style="mix-blend-mode:multiply" opacity=".4"/><path d="M132.058 226.461h.477a3.823 3.823 0 0 1 3.827 3.821v25.515m113.591-29.336h-.48a3.831 3.831 0 0 0-3.534 2.359 3.825 3.825 0 0 0-.291 1.462v25.515" stroke="#A7E200" stroke-width="2" stroke-linecap="round" stroke-linejoin="round"/><path d="M180.187 156.258c0 2.867 1.139 5.616 3.168 7.643a10.825 10.825 0 0 0 15.3 0 10.803 10.803 0 0 0 3.169-7.643h-21.637z" fill="#253244"/><path d="M180.187 156.258c0 2.867 1.139 5.616 3.168 7.643a10.825 10.825 0 0 0 15.3 0 10.803 10.803 0 0 0 3.169-7.643h-21.637z" stroke="#A7E200" stroke-width="2" stroke-linecap="round" stroke-linejoin="round"/><path d="M275.55 58.809a35.511 35.511 0 0 0-25.095 10.387 35.446 35.446 0 0 0-10.396 25.075c0 .673.065 1.33.095 1.99v34.012l11.548-9.787a35.504 35.504 0 0 0 47.178.484 35.456 35.456 0 0 0 9.775-13.941 35.431 35.431 0 0 0-3.837-32.825A35.47 35.47 0 0 0 292.09 62.89a35.505 35.505 0 0 0-16.54-4.081z" fill="#151A22"/><path d="M275.549 129.73a35.495 35.495 0 0 0 23.578-8.957 35.44 35.44 0 0 0 11.661-22.348 35.44 35.44 0 0 0-11.98-22.628 35.501 35.501 0 0 0-47.772 1.14 35.442 35.442 0 0 0-10.884 23.175v30.159l11.549-9.787a35.356 35.356 0 0 0 23.848 9.246z" fill="#1C232E"/><path d="M275.55 58.809a35.511 35.511 0 0 0-25.095 10.387 35.446 35.446 0 0 0-10.396 25.075c0 .673.065 1.33.095 1.99v34.012l11.548-9.787a35.504 35.504 0 0 0 47.178.484 35.456 35.456 0 0 0 9.775-13.941 35.431 35.431 0 0 0-3.837-32.825A35.47 35.47 0 0 0 292.09 62.89a35.505 35.505 0 0 0-16.54-4.081z" stroke="#A7E200" stroke-width="2" stroke-linecap="round" stroke-linejoin="round"/><path d="M281.431 81.844a8.352 8.352 0 0 0-6.004 2.445 8.337 8.337 0 0 0-6-2.445c-4.421 0-7.997 3.245-7.997 7.256a6.72 6.72 0 0 0 1.398 4.101c.043.045.072.102.126.166a.26.26 0 0 0 .084.068l11.045 13.086a1.761 1.761 0 0 0 1.344.612 1.718 1.718 0 0 0 1.331-.612l11.058-13.078.079-.076c.057-.064.093-.125.142-.175a6.757 6.757 0 0 0 1.401-4.092c0-4.011-3.619-7.256-8.007-7.256z" fill="#253244"/><path d="M280.443 86.016a6.973 6.973 0 0 0-5.013 2.044 6.973 6.973 0 0 0-5.01-2.044c-3.691 0-6.677 2.711-6.677 6.06 0 1.238.41 2.442 1.166 3.424.039.037.06.084.105.138a.228.228 0 0 0 .071.058l9.223 10.925a1.472 1.472 0 0 0 1.122.511 1.44 1.44 0 0 0 1.111-.511l9.232-10.918.065-.065c.049-.054.078-.104.119-.146a5.65 5.65 0 0 0 1.171-3.417c0-3.348-3.023-6.059-6.685-6.059z" fill="#1C232E"/><path d="M281.431 81.844a8.352 8.352 0 0 0-6.004 2.445 8.337 8.337 0 0 0-6-2.445c-4.421 0-7.997 3.245-7.997 7.256a6.72 6.72 0 0 0 1.398 4.101c.043.045.072.102.126.166a.26.26 0 0 0 .084.068l11.045 13.086a1.761 1.761 0 0 0 1.344.612 1.718 1.718 0 0 0 1.331-.612l11.058-13.078.079-.076c.057-.064.093-.125.142-.175a6.757 6.757 0 0 0 1.401-4.092c0-4.011-3.619-7.256-8.007-7.256z" stroke="#A7E200" stroke-width="2" stroke-linecap="round" stroke-linejoin="round"/><path d="M157.873 16.402h-16.422a10.11 10.11 0 0 0-7.146 2.959 10.092 10.092 0 0 0-2.961 7.14v13.36a5.363 5.363 0 0 0 5.369 5.365 5.363 5.363 0 0 0 5.37-5.365v-2h15.158v2a5.372 5.372 0 0 0 10.74 0V26.5c0-2.678-1.066-5.247-2.961-7.14a10.113 10.113 0 0 0-7.147-2.959z" fill="#151A22"/><path d="M157.873 19.117h-16.422a10.11 10.11 0 0 0-7.146 2.959 10.092 10.092 0 0 0-2.961 7.14v10.645a5.363 5.363 0 0 0 5.369 5.365 5.363 5.363 0 0 0 5.37-5.366v-1.998h15.158v1.999a5.372 5.372 0 0 0 10.74 0V29.216c0-2.678-1.066-5.247-2.961-7.14a10.113 10.113 0 0 0-7.147-2.959z" fill="#1C232E"/><path d="M157.873 16.402h-16.422a10.11 10.11 0 0 0-7.146 2.959 10.092 10.092 0 0 0-2.961 7.14v13.36a5.363 5.363 0 0 0 5.369 5.365 5.363 5.363 0 0 0 5.37-5.365v-2h15.158v2a5.372 5.372 0 0 0 10.74 0V26.5c0-2.678-1.066-5.247-2.961-7.14a10.113 10.113 0 0 0-7.147-2.959zm-17.959 7.969v6.443m3.222-3.224h-6.448m26.028 0h-.169m-6.362 0h-.169m3.347 3.349v-.17m0-6.358v-.169" stroke="#A7E200" stroke-width="2" stroke-linecap="round" stroke-linejoin="round"/><path d="M122.952 265.52a17.05 17.05 0 0 1-5.002 12.071 17.078 17.078 0 0 1-12.082 4.998H40.623a17.09 17.09 0 0 1-12.073-5.003 17.06 17.06 0 0 1-5-12.066v-32.167c0-4.525 1.8-8.864 5-12.064a17.083 17.083 0 0 1 12.073-5h65.245a17.094 17.094 0 0 1 12.081 4.994 17.045 17.045 0 0 1 5.003 12.07v32.167z" fill="#151A22"/><path d="M105.868 224.371H40.623c-4.528.002-8.87 1.8-12.072 5s-5 7.539-5 12.064v24.085c0 4.526 1.798 8.866 5 12.066a17.086 17.086 0 0 0 12.072 5.003h65.245a17.094 17.094 0 0 0 12.082-4.997 17.043 17.043 0 0 0 3.703-5.539 17.03 17.03 0 0 0 1.299-6.533v-24.085a17.045 17.045 0 0 0-5.003-12.069 17.065 17.065 0 0 0-12.081-4.995z" fill="#1C232E"/><path d="M122.952 265.52a17.05 17.05 0 0 1-5.002 12.071 17.078 17.078 0 0 1-12.082 4.998H40.623a17.09 17.09 0 0 1-12.073-5.003 17.06 17.06 0 0 1-5-12.066v-32.167c0-4.525 1.8-8.864 5-12.064a17.083 17.083 0 0 1 12.073-5h65.245a17.094 17.094 0 0 1 12.081 4.994 17.045 17.045 0 0 1 5.003 12.07v32.167z" stroke="#A7E200" stroke-width="2" stroke-linecap="round" stroke-linejoin="round"/><path d="M57.961 270.354a1.122 1.122 0 0 0 .792-.325 1.114 1.114 0 0 0 .327-.79v-23.186a1.115 1.115 0 0 0-1.119-1.108h-9.375v25.409h9.375zm14.323-.327c-5.23-1.962-10.89-2.417-12.635-2.168" stroke="#A7E200" stroke-width="2" stroke-linecap="round" stroke-linejoin="round"/><path d="M92.287 263.929l1.845-.079a3.097 3.097 0 0 1 3.222 2.956c.075 1.708-1.078 2.463-2.959 3.223 0 0-12.386 3.116-22.114-.003" stroke="#A7E200" stroke-width="2" stroke-linecap="round" stroke-linejoin="round"/><path d="M93.556 257.452l1.913-.078a3.216 3.216 0 0 1 3.35 3.068 3.216 3.216 0 0 1-3.075 3.341l-2.618.112" stroke="#A7E200" stroke-width="2" stroke-linecap="round" stroke-linejoin="round"/><path d="M94.879 250.686l1.999-.085a3.362 3.362 0 0 1 3.499 3.208 3.362 3.362 0 0 1-3.212 3.496l-2.739.116" stroke="#A7E200" stroke-width="2" stroke-linecap="round" stroke-linejoin="round"/><path d="M94.121 250.717l2.757-.116a3.376 3.376 0 0 0 3.235-3.523 3.361 3.361 0 0 0-1.088-2.344 3.36 3.36 0 0 0-1.127-.685 3.364 3.364 0 0 0-1.303-.202s-10.313.134-12.299.222m-17.85-.227a16.371 16.371 0 0 1 7.907-7.973c3.238-1.529 6.309-7.929 8.428-8.362 2.118-.434 4.363 2.507 2.147 6.982-1.029 2.078-3.199 4.016-4.642 6.834-1.669 3.266 2.242 2.735 4.011 2.744m-17.851-.223c-1.821 3.996-5.037 3.825-6.797 3.716" stroke="#A7E200" stroke-width="2" stroke-linecap="round" stroke-linejoin="round"/></svg>