<svg xmlns="http://www.w3.org/2000/svg" width="16" height="16" viewBox="0 0 16 16" fill="none"><g clip-path="url(#a)"><path d="M15.903 7.928C14.397 4.988 11.415 3 8 3 4.585 3 1.602 4.99.097 7.928a.899.899 0 0 0 0 .81c1.506 2.94 4.488 4.929 7.903 4.929 3.415 0 6.398-1.99 7.903-4.928a.9.9 0 0 0 0-.811zM8 12.333a4 4 0 1 1 0-8 4 4 0 0 1 0 8zm0-6.666a2.647 2.647 0 0 0-.703.105A1.33 1.33 0 0 1 5.439 7.63 2.66 2.66 0 1 0 8 5.667z" fill="#fff"/></g><defs><clipPath id="a"><path fill="#fff" d="M0 0h16v16H0z"/></clipPath></defs></svg>