<svg xmlns="http://www.w3.org/2000/svg" width="66" height="16" viewBox="0 0 66 16" fill="none"><path d="M6.317 4.803L0 15.02h4.315l6.083-9.761-4.081-.455zm26.007-.227V.792H20.042c-1.677.107-2.405.936-2.95 1.524-.586.629-.91 1.953-.91 1.953V.819H9.643c-.494 0-.962.214-1.313.722-.364.495-1.858 3.035-1.858 3.035h25.85zm33.402 0V.792h-13.14c-1.663.107-2.404.936-2.95 1.524-.585.629-.91 1.953-.91 1.953v.307h17zM36.64.806h-3.68v3.77h3.678V.806zm12.048 0h-3.665v3.77h3.665V.806zm0 5.134l-3.613-.227v4.372s-.013 1.257-1.196 1.257h-6.186s-1.053-.094-1.053-1.244V5.124L33 4.857v6.699c.585 3.21 3.406 3.463 3.406 3.463s.286.014.338.027h8.383s3.587-.294 3.587-3.851l-.026-5.255zm-36.249 9.08H29.62c2.99-.616 3.302-3.424 3.302-3.424.143-.829.065-1.51.065-1.51-.091-.562-1.131-3.05-3.367-3.264-1.338-.133-13.257-1.11-13.257-1.11.234 1.23.767 1.86 1.131 2.207.832.816 2.145 1.056 2.145 1.056l9.189.79c.285.013.818.093.805.815 0 .094-.078.722-.753.722H16.025V5.686l-3.574-.268c-.013 0-.013 9.601-.013 9.601zm36.275.026h13.153c3.302-.2 3.77-3.423 3.77-3.423.116-.843.025-1.538.025-1.538-.09-.762-1.143-3.062-3.392-3.29-1.325-.133-13.322-.855-13.322-.855.351 1.27.832 1.658 1.196 2.006.832.829 2.066 1.016 2.066 1.016l9.28.802c.286.014.871.04.871.762a.819.819 0 0 1-.234.562s-.312.174-.61.174H48.751l-.039 3.784z" fill="#fff"/></svg>