<svg xmlns="http://www.w3.org/2000/svg" width="79" height="20" viewBox="0 0 79 20" fill="none"><path fill-rule="evenodd" clip-rule="evenodd" d="M75.678 13.431s1.01 1.812 1.605 2.707c.597.894 1.101 1.398 1.698 1.788h-.94c-1.744-.39-2.317-.963-2.845-1.834a538.078 538.078 0 0 1-2.063-3.486h.596c.504 0 .802-.16.963-.321a2.42 2.42 0 0 0 .573-1.582 2.497 2.497 0 0 0-.458-1.514 1.395 1.395 0 0 0-1.17-.573h-.99c-.11.083-.204.183-.28.298v7.362c.183.32.962.756.962.756h-3.636s.78-.435.963-.756V8.914c-.183-.321-.963-.757-.963-.757h4.563a3.553 3.553 0 0 1 1.812.459c.527.32.94.963.94 2.018 0 1.055-.481 1.674-.825 1.926-.459.299-.99.465-1.537.482a1.54 1.54 0 0 0 1.032.39zm-6.498 3.601h-3.637s.78-.435.963-.756V8.914c-.183-.321-.963-.757-.963-.757h3.637s-.78.436-.964.757v7.362c.184.32.964.756.964.756zm-6.824-.872l-.786-1.972h-3.08l-.813 2.041c0 .321.918.803.918.803H55.75s.803-.344.963-.757c.16-.413 3.257-8.118 3.257-8.118h1.1s3.142 7.843 3.28 8.164c.137.321.917.711.917.711h-3.944s1.032-.528 1.032-.872zm-2.328-5.84l-1.274 3.203h2.55l-1.276-3.203zm-5.171 2.01a2.4 2.4 0 0 1 1.1 2.065 2.665 2.665 0 0 1-.94 2.11c-.527.458-1.399.756-2.385.756a6.158 6.158 0 0 1-2.637-.71v-2.202h.275c.206.642.459 1.192.963 1.674a2.139 2.139 0 0 0 1.514.642c.481 0 1.009-.252 1.123-.39a1.412 1.412 0 0 0 .413-1.1c0-.711-.39-1.055-.986-1.4-.596-.344-1.743-.756-2.339-1.238a2.44 2.44 0 0 1-.894-1.972 2.455 2.455 0 0 1 .802-1.858c.505-.504 1.262-.756 2.294-.756a4.97 4.97 0 0 1 2.385.596v2.018h-.298a3.049 3.049 0 0 0-.734-1.49 1.66 1.66 0 0 0-1.353-.597 1.839 1.839 0 0 0-1.032.298 1.34 1.34 0 0 0-.642 1.124c0 .573.367 1.009.917 1.33.55.321 1.857.71 2.454 1.1zm-7.98 1.101s1.008 1.812 1.604 2.707c.597.894 1.101 1.398 1.697 1.788h-.94c-1.743-.39-2.316-.963-2.843-1.834a523.873 523.873 0 0 1-2.064-3.486h.596c.504 0 .803-.16.963-.321a2.42 2.42 0 0 0 .573-1.582 2.497 2.497 0 0 0-.458-1.514 1.395 1.395 0 0 0-1.17-.573h-.99c-.11.083-.204.183-.28.298v7.362c.183.32.963.756.963.756H40.89s.78-.435.963-.756V8.914c-.183-.321-.963-.757-.963-.757h4.563a3.552 3.552 0 0 1 1.812.459c.527.32.94.963.94 2.018 0 1.055-.481 1.674-.825 1.926-.459.299-.99.466-1.537.482a1.54 1.54 0 0 0 1.032.39zm-7.27 2.5c-.757.803-1.95 1.33-3.303 1.33a4.543 4.543 0 0 1-3.119-1.215 4.62 4.62 0 0 1-1.422-3.463 4.628 4.628 0 0 1 1.4-3.417c.573-.596 1.559-1.215 3.187-1.215s2.477.573 3.119 1.17a4.595 4.595 0 0 1 1.468 3.416c0 1.697-.574 2.591-1.33 3.394zm-1.308-6.306C37.841 9.028 37.267 8.5 36.35 8.5s-1.651.665-2.018 1.307a5.505 5.505 0 0 0-.71 2.706c0 1.124.274 2.156.756 2.89.481.734 1.1 1.33 1.972 1.33.871 0 1.514-.596 1.972-1.262.459-.664.734-1.811.734-2.912 0-1.1-.298-2.339-.757-2.935zM27.452 17.26c-1.307 0-2.545-.481-3.28-1.078-.733-.596-1.72-1.628-1.72-3.6a4.61 4.61 0 0 1 1.606-3.532c.505-.458 1.766-1.1 3.417-1.1a6.634 6.634 0 0 1 3.394.917v2.408h-.32c-.207-1.147-1.079-2.73-2.799-2.73s-3.417 1.606-3.417 4.014c0 2.408 1.674 4.105 3.394 4.105 1.72 0 2.523-1.513 2.821-2.752h.321v2.408c-.757.528-2.11.94-3.417.94zm-11.11-1.721c-2.23 0-6.155.442-15.758 4.46 2.138-2.415 2.746-4.958 2.746-6.838s-.516-3.446-1.069-4.405l4.497 2.378s.13.332.13 1.75a16.707 16.707 0 0 1-.406 3.54A12.943 12.943 0 0 0 7.606 11.3 11.714 11.714 0 0 0 6.5 6.306l4.774 3.152s.129.423.129 2.064c.007 1.352-.18 2.7-.553 4a11.862 11.862 0 0 0 1.475-5.714c0-2.12-.627-4.147-1.64-6.009 1.88 1.217 6.247 4.682 8.016 6.359 1.77 1.677 2.58 2.69 2.58 4.091 0 1.217-.681 2.507-1.031 3.005-.406-1.106-1.677-1.714-3.908-1.714zM13.246 4.776c0-1.77-.83-3.612-1.382-4.755.792.405 2.359 1.511 3.796 2.801 1.438 1.29 2.654 3.06 2.654 4.442.007.403-.101.8-.313 1.143-.719-2.064-3.41-3.17-4.755-3.631zM8.601 6.951s.037-.313.037-.498c0-.663-.405-1.843-1.253-3.28l2.82 1.843c.399.915.69 1.874.866 2.856a15.576 15.576 0 0 0-2.47-.921zm-4.22 2.23c.03-.133.049-.269.055-.405 0-.922-.682-2.175-1.216-2.894L5.855 7.32c.349.785.608 1.607.774 2.45a14.618 14.618 0 0 0-2.248-.589z" fill="#fff"/></svg>