<svg xmlns="http://www.w3.org/2000/svg" width="63" height="16" viewBox="0 0 63 16" fill="none"><path fill-rule="evenodd" clip-rule="evenodd" d="M33.806 12.674a32.62 32.62 0 0 0 5.861.527h.001c2.054 0 3.545-.457 3.706-1.852.078-.664-.549-1.142-1.699-1.775a25.225 25.225 0 0 0-1.521-.76c-.703-.33-1.366-.64-2.043-1.094a2.802 2.802 0 0 1-1.25-3.242c.45-1.49 1.495-2.352 3.088-3.166C41.817.358 43.296 0 46.9 0c2.227 0 4.448.212 6.635.634l-.774 2.132a32.66 32.66 0 0 0-5.86-.527c-2.056 0-3.547.458-3.708 1.853-.077.665.549 1.142 1.7 1.776.536.296 1.037.53 1.52.758.703.33 1.367.641 2.044 1.094a2.804 2.804 0 0 1 1.25 3.244c-.45 1.487-1.496 2.35-3.089 3.165-1.867.954-3.347 1.312-6.949 1.312h-.001c-2.226 0-4.448-.212-6.633-.636l.772-2.131zm21.231-9.801l.811-2.239c2.085-.394 4.2-.606 6.32-.634l-.811 2.239c-2.121.028-4.236.24-6.32.634zm5.76.91L56.57 15.44h-6.09l3.998-11.024a36.563 36.563 0 0 1 6.32-.635zm-32.643 1.93l-3.526 9.728h6.089l3.919-10.81c.318-.876.339-2.455-.542-3.318C33.214.447 32.164 0 30.225 0a12.754 12.754 0 0 0-4.778 1.003c-.98.417-1.928.91-2.831 1.475-.1-.44-.32-.843-.634-1.165C21.1.447 20.052 0 18.113 0a12.755 12.755 0 0 0-4.778 1.003 20.29 20.29 0 0 0-2.832 1.475c-.1-.44-.319-.843-.633-1.165C8.988.447 7.94 0 6 0L.402 15.44h6.09l2.799-7.72a8.604 8.604 0 0 1 2.646-3.32c.966-.745 5.28-1.93 4.104 1.313l-3.526 9.728h6.09l2.799-7.722a8.61 8.61 0 0 1 2.646-3.318c.964-.746 5.28-1.931 4.104 1.312z" fill="#fff"/></svg>