<svg xmlns="http://www.w3.org/2000/svg" width="85" height="18" viewBox="0 0 85 18" fill="none"><path d="M51.876 3.282v10.536h2.977V3.282h-2.977zm-23.41-.015v10.551h3.003V5.807h2.326c.77 0 1.319.193 1.69.589.47.5.663 1.31.663 2.79v4.632h2.908v-5.83c0-4.16-2.651-4.72-5.246-4.72h-5.343zm28.2.016v10.535h4.827c2.571 0 3.41-.428 4.319-1.386.641-.674 1.055-2.15 1.055-3.766 0-1.48-.35-2.802-.962-3.625-1.103-1.472-2.691-1.758-5.062-1.758h-4.176zm2.953 2.293h1.279c1.856 0 3.056.834 3.056 2.996 0 2.164-1.2 2.997-3.056 2.997h-1.28V5.576zM47.586 3.283l-2.484 8.349-2.38-8.35H39.51l3.398 10.536h4.29l3.424-10.535h-3.036zm20.666 10.535h2.976V3.283h-2.976v10.535zm8.342-10.533l-4.155 10.53h2.934l.658-1.861h4.913l.627 1.86h3.187l-4.19-10.529h-3.974zm1.932 1.922l1.8 4.932h-3.66l1.86-4.932zM9.41 5.352V3.848c.145-.01.292-.018.443-.022 4.111-.13 6.808 3.532 6.808 3.532s-2.913 4.046-6.037 4.046c-.45 0-.852-.073-1.215-.194V6.652c1.6.193 1.922.9 2.885 2.504l2.14-1.805s-1.562-2.048-4.195-2.048c-.287 0-.561.02-.83.049zm0-4.966v2.246c.147-.012.295-.022.443-.027 5.717-.192 9.441 4.688 9.441 4.688s-4.278 5.203-8.735 5.203c-.408 0-.79-.038-1.15-.101v1.388c.307.039.626.062.958.062 4.147 0 7.147-2.119 10.052-4.625.48.385 2.452 1.323 2.858 1.734-2.762 2.312-9.198 4.176-12.846 4.176-.352 0-.69-.022-1.022-.054v1.951h15.764V.387H9.41zm0 10.824v1.184c-3.837-.683-4.902-4.671-4.902-4.671s1.842-2.04 4.901-2.371v1.3h-.006c-1.605-.193-2.86 1.306-2.86 1.306s.703 2.525 2.866 3.252zM2.595 7.55s2.273-3.355 6.813-3.702V2.632C4.381 3.035.026 7.293.026 7.293s2.466 7.13 9.383 7.783v-1.293C4.334 13.144 2.596 7.55 2.596 7.55z" fill="#fff"/></svg>