<svg xmlns="http://www.w3.org/2000/svg" width="64" height="17" viewBox="0 0 64 17" fill="none"><path fill-rule="evenodd" clip-rule="evenodd" d="M43.346.386h5.164l-5.25 8.076 5.343 8.235h-5.48l-2.66-4.146-2.626 4.146h-5.344l5.236-8.084L32.414.386h5.473l2.647 4.189 2.812-4.19zm6.455 0h13.55v4.296h-4.275v12.015h-5V4.682h-4.275V.386zM10.243 8.34l.007.136L4.684.387H0v16.31h4.705V8.113l5.882 8.586h4.361V.386h-4.705v7.955zm7.23-3.845V.386h13.385L24.43 12.558h6.29v4.139H17.13l6.305-12.201h-5.96z" fill="#fff"/></svg>